# Blender v2.92.0 OBJ File: 'Teste_02.31.blend'
# www.blender.org
mtllib Eixos_pequenos.mtl
v -0.229966 0.091229 1.175209
v -0.229966 0.110543 1.212310
v -0.229966 0.150434 1.224888
v -0.229966 0.140908 1.116005
v -0.229966 0.103807 1.135318
v 0.231058 0.135525 1.078573
v 0.231058 0.072269 1.111502
v 0.231058 0.050774 1.178944
v 0.231058 0.083753 1.242772
v 0.231058 0.151767 1.264217
v -0.927886 0.091229 1.175209
v -0.927886 0.110543 1.212310
v -0.927886 0.150434 1.224888
v -0.927886 0.140908 1.116005
v -0.927886 0.103807 1.135318
v -0.231058 0.135525 1.078573
v -0.231058 0.072269 1.111502
v -0.231058 0.050774 1.178944
v -0.231058 0.083753 1.242772
v -0.231058 0.151767 1.264217
v 0.231058 0.149377 1.263955
v -0.231058 0.134067 1.078998
v 0.229196 0.091229 1.175209
v 0.229196 0.103807 1.135319
v 0.229196 0.140908 1.116005
v 0.229196 0.150434 1.224888
v 0.229196 0.110543 1.212310
v 0.927117 0.091229 1.175209
v 0.927117 0.103807 1.135318
v 0.927117 0.140908 1.116005
v 0.927117 0.150434 1.224888
v 0.927117 0.110543 1.212310
v -0.927886 0.058295 -0.748895
v 0.231058 0.102456 -0.650728
v 0.231058 0.039200 -0.683657
v 0.231058 0.017805 -0.752242
v 0.231058 0.099330 -0.839049
v 0.231058 0.050685 -0.814927
v 0.231058 0.118698 -0.836371
v -0.229966 0.077608 -0.785996
v -0.229966 0.117499 -0.798574
v -0.229966 0.107973 -0.689691
v -0.229966 0.070872 -0.709004
v -0.229966 0.058295 -0.748895
v 0.927117 0.070872 -0.709004
v 0.927117 0.107973 -0.689691
v 0.927117 0.117499 -0.798574
v 0.927117 0.077608 -0.785996
v 0.927117 0.058295 -0.748895
v 0.229196 0.070872 -0.709004
v 0.229196 0.107973 -0.689691
v 0.229196 0.117499 -0.798574
v 0.229196 0.077608 -0.785996
v 0.229196 0.058295 -0.748895
v -0.231058 0.117188 -0.836206
v 0.231058 0.100149 -0.651400
v -0.231058 0.102456 -0.650728
v -0.231058 0.039200 -0.683657
v -0.231058 0.017805 -0.752242
v -0.231058 0.050685 -0.814927
v -0.231058 0.118698 -0.836371
v -0.927886 0.077608 -0.785996
v -0.927886 0.117499 -0.798574
v -0.927886 0.107973 -0.689691
v -0.927886 0.070872 -0.709004
vt 0.407013 0.350938
vt 0.425195 0.350713
vt 0.426651 0.468535
vt 0.408848 0.468755
vt 0.406792 0.468769
vt 0.537792 0.529881
vt 0.527013 0.529881
vt 0.527014 0.350030
vt 0.537792 0.350030
vt 0.570128 0.529881
vt 0.559349 0.529881
vt 0.559349 0.350030
vt 0.570128 0.350030
vt 0.548571 0.529881
vt 0.548571 0.350030
vt 0.443242 0.350490
vt 0.444698 0.468312
vt 0.461560 0.350264
vt 0.463016 0.468086
vt 0.479142 0.350047
vt 0.481198 0.350030
vt 0.481198 0.467861
vt 0.405441 0.470119
vt 0.405441 0.518024
vt 0.388984 0.511321
vt 0.381735 0.494285
vt 0.388554 0.477367
vt 0.354852 0.470119
vt 0.354852 0.518067
vt 0.338202 0.511243
vt 0.331035 0.494470
vt 0.337930 0.477288
vt 0.493327 0.529881
vt 0.482549 0.529881
vt 0.482549 0.350030
vt 0.493327 0.350030
vt 0.525663 0.529881
vt 0.514884 0.529881
vt 0.514884 0.350030
vt 0.525663 0.350030
vt 0.504106 0.529881
vt 0.504106 0.350030
vt 0.448862 0.470119
vt 0.459641 0.470119
vt 0.459641 0.649970
vt 0.448863 0.649970
vt 0.470420 0.470119
vt 0.470420 0.649970
vt 0.438084 0.470119
vt 0.438084 0.649970
vt 0.481198 0.470119
vt 0.481198 0.649970
vt 0.349438 0.350713
vt 0.367485 0.350490
vt 0.368941 0.468312
vt 0.350894 0.468535
vt 0.331256 0.350938
vt 0.333091 0.468755
vt 0.331035 0.468769
vt 0.603814 0.529881
vt 0.593035 0.529881
vt 0.593035 0.350030
vt 0.603814 0.350030
vt 0.582257 0.529881
vt 0.582257 0.350030
vt 0.614593 0.529881
vt 0.614592 0.350030
vt 0.571478 0.529881
vt 0.571478 0.350030
vt 0.436733 0.470119
vt 0.436733 0.518067
vt 0.420084 0.511243
vt 0.412917 0.494470
vt 0.419812 0.477288
vt 0.379909 0.470119
vt 0.379909 0.518025
vt 0.363451 0.511321
vt 0.356202 0.494285
vt 0.363021 0.477367
vt 0.385803 0.350264
vt 0.403385 0.350047
vt 0.405441 0.350030
vt 0.405441 0.467861
vt 0.387259 0.468086
vn 0.0003 -0.4617 -0.8870
vn 0.0002 -0.7650 -0.6440
vn 0.0000 -0.6428 0.7660
vn 0.0000 -0.3007 0.9537
vn 0.0000 -0.4617 -0.8870
vn 0.0000 -0.7660 -0.6428
vn 0.0000 -0.9962 0.0872
vn 0.0000 -0.9965 0.0841
vn -0.0003 -0.6440 0.7651
vn -0.0005 -0.3007 0.9537
vn 1.0000 0.0000 0.0000
vn -1.0000 0.0000 0.0000
vn 0.0000 -0.6428 -0.7660
vn 0.0000 -0.9962 -0.0872
vn 0.0000 -0.7660 0.6428
vn 0.0000 -0.3007 -0.9537
vn 0.0000 -0.4617 0.8870
vn 0.0002 -0.6416 -0.7670
vn 0.0000 -0.9959 -0.0902
vn 0.0003 -0.3007 -0.9537
vn -0.0003 -0.7670 0.6416
vn -0.0005 -0.4617 0.8870
usemtl UV'S
s 1
f 6/1/1 7/2/2 17/3/2 22/4/1 16/5/1
f 2/6/3 3/7/4 13/8/4 12/9/3
f 4/10/5 5/11/6 15/12/6 14/13/5
f 1/14/7 2/6/3 12/9/3 11/15/7
f 5/11/6 1/14/7 11/15/7 15/12/6
f 7/2/2 8/16/8 18/17/8 17/3/2
f 8/16/8 9/18/9 19/19/9 18/17/8
f 9/18/9 21/20/10 10/21/10 20/22/10 19/19/9
f 6/23/11 21/24/11 9/25/11 8/26/11 7/27/11
f 20/28/12 22/29/12 17/30/12 18/31/12 19/32/12
f 24/33/6 25/34/5 30/35/5 29/36/6
f 26/37/4 27/38/3 32/39/3 31/40/4
f 23/41/7 24/33/6 29/36/6 28/42/7
f 27/38/3 23/41/7 28/42/7 32/39/3
f 40/43/13 44/44/14 33/45/14 62/46/13
f 44/44/14 43/47/15 65/48/15 33/45/14
f 41/49/16 40/43/13 62/46/13 63/50/16
f 43/47/15 42/51/17 64/52/17 65/48/15
f 38/53/18 36/54/19 59/55/19 60/56/18
f 39/57/20 38/53/18 60/56/18 55/58/20 61/59/20
f 50/60/15 54/61/14 49/62/14 45/63/15
f 54/61/14 53/64/13 48/65/13 49/62/14
f 51/66/17 50/60/15 45/63/15 46/67/17
f 53/64/13 52/68/16 47/69/16 48/65/13
f 57/70/12 55/71/12 60/72/12 59/73/12 58/74/12
f 39/75/11 56/76/11 35/77/11 36/78/11 38/79/11
f 35/80/21 56/81/22 34/82/22 57/83/22 58/84/21
f 36/54/19 35/80/21 58/84/21 59/55/19
